 <svg version="1.0" xmlns="http://www.w3.org/2000/svg" width="700.000000pt" height="700.000000pt" viewBox="0 0 700.000000 700.000000" preserveAspectRatio="xMidYMid meet">
<metadata>
Created by potrace 1.12, written by Peter Selinger 2001-2015
</metadata>
<g transform="translate(0.000000,700.000000) scale(0.100000,-0.100000)" fill="#000000" stroke="none">
<path d="M33 6963 l-33 -35 0 -3428 0 -3428 36 -36 36 -36 3428 0 3428 0 36
36 36 36 0 3428 0 3428 -36 36 -36 36 -3431 -1 -3432 -2 -32 -34z m6719 -210
c17 -16 18 -130 18 -3254 l0 -3238 -22 -15 c-20 -14 -345 -16 -3252 -16 -2991
0 -3231 1 -3248 17 -17 16 -18 130 -18 3251 0 2997 1 3237 17 3254 16 17 130
18 3251 18 2997 0 3237 -1 3254 -17z"></path>
<path d="M2054 5941 c-12 -5 -45 -40 -73 -78 -91 -121 -146 -197 -184 -253
-20 -30 -73 -104 -116 -165 -44 -60 -97 -134 -118 -163 -63 -89 -57 -91 -204
55 -75 74 -141 132 -158 137 -82 24 -159 -41 -148 -124 5 -36 24 -59 199 -233
106 -106 205 -201 220 -210 71 -44 105 -13 312 287 27 39 70 99 95 133 234
315 341 475 341 508 0 49 -54 105 -105 111 -22 2 -50 0 -61 -5z"></path>
<path d="M3141 5830 c-35 -5 -52 -16 -78 -45 l-33 -38 0 -264 0 -264 39 -42
40 -42 1385 0 1386 0 32 33 33 32 0 285 0 284 -34 33 -34 33 -1346 1 c-740 1
-1366 -2 -1390 -6z m2549 -229 c25 -7 25 -8 25 -116 l0 -110 -1220 0 -1220 0
-3 108 c-3 104 -2 108 20 117 27 10 2359 12 2398 1z"></path>
<path d="M1154 4083 c-30 -3 -49 -12 -70 -34 l-29 -30 0 -519 0 -519 34 -33
34 -33 436 -3 c240 -2 470 -1 511 3 71 7 77 9 113 46 l37 40 0 498 0 498 -33
38 c-26 30 -42 39 -82 46 -48 8 -868 9 -951 2z m800 -233 l26 -10 0 -340 0
-340 -27 -11 c-38 -14 -648 -8 -663 7 -7 7 -9 120 -8 349 l3 339 25 7 c41 11
615 11 644 -1z"></path>
<path d="M3108 3840 c-20 -11 -46 -33 -57 -49 -20 -28 -21 -42 -21 -298 l0
-269 28 -26 c67 -63 -42 -59 1439 -57 l1347 1 37 24 c70 44 69 39 69 334 0
295 1 290 -69 334 l-36 23 -1350 1 c-1322 2 -1351 1 -1387 -18z m2607 -340 l0
-105 -1220 0 -1220 0 -3 94 c-1 52 -1 100 2 108 5 11 218 13 1223 11 l1218 -3
0 -105z"></path>
<path d="M1113 2080 c-21 -14 -43 -37 -50 -50 -18 -36 -18 -994 0 -1029 6 -13
25 -34 40 -45 28 -21 39 -21 505 -23 326 -2 491 1 520 9 32 8 50 20 68 47 l24
36 0 493 c0 485 0 494 -21 523 -11 16 -38 39 -60 50 -38 19 -55 20 -514 17
l-475 -3 -37 -25z m862 -565 l0 -340 -345 0 -345 0 -3 330 c-1 181 0 336 3
343 3 10 77 12 347 10 l343 -3 0 -340z"></path>
<path d="M3148 1863 c-39 -3 -52 -10 -82 -44 l-36 -39 0 -265 0 -264 38 -40
c35 -37 41 -39 112 -46 41 -3 665 -5 1386 -3 l1311 3 34 33 34 33 0 284 0 285
-33 32 -32 33 -1343 1 c-738 0 -1363 -1 -1389 -3z m2567 -348 c0 -108 0 -109
-25 -116 -41 -11 -2365 -11 -2394 1 -26 9 -26 11 -26 113 0 57 3 107 7 110 3
4 554 6 1222 5 l1216 -3 0 -110z"></path>
</g>
</svg>