 <svg version="1.0" xmlns="http://www.w3.org/2000/svg" width="700.000000pt" height="700.000000pt" viewBox="0 0 700.000000 700.000000" preserveAspectRatio="xMidYMid meet">
<metadata>
Created by potrace 1.12, written by Peter Selinger 2001-2015
</metadata>
<g transform="translate(0.000000,700.000000) scale(0.100000,-0.100000)" fill="#000000" stroke="none">
<path d="M62 6986 c-13 -7 -32 -26 -43 -42 -19 -29 -19 -85 -19 -3442 0 -3142
1 -3416 16 -3442 9 -15 29 -35 44 -44 26 -15 299 -16 3442 -16 2757 1 3417 3
3436 14 13 7 32 26 43 42 19 29 19 85 19 3442 0 3754 5 3453 -60 3487 -26 13
-410 15 -3442 15 -2757 -1 -3417 -3 -3436 -14z m6703 -3486 l0 -3265 -3265 0
-3265 0 -3 3255 c-1 1790 0 3261 3 3268 3 10 662 12 3267 10 l3263 -3 0 -3265z"></path>
<path d="M2040 5934 c-14 -9 -138 -174 -275 -367 -138 -193 -256 -352 -263
-355 -7 -2 -75 57 -151 132 l-138 136 -48 0 c-89 0 -143 -89 -101 -168 8 -15
101 -112 205 -217 l191 -190 54 0 c39 0 60 5 75 19 12 11 68 85 124 165 57 80
190 267 297 415 106 148 198 281 203 296 14 37 1 78 -38 117 -26 26 -41 33
-71 33 -22 0 -50 -8 -64 -16z"></path>
<path d="M3078 5807 c-46 -39 -48 -51 -48 -324 0 -241 1 -260 20 -291 41 -66
-50 -62 1461 -60 l1371 3 34 38 35 38 -3 280 -3 281 -33 29 -32 29 -1388 0
-1387 0 -27 -23z m2632 -322 l0 -115 -1220 0 -1220 0 0 115 0 115 1220 0 1220
0 0 -115z"></path>
<path d="M1088 4051 l-33 -29 0 -522 0 -522 33 -29 32 -29 513 0 c557 1 529
-2 569 57 17 26 18 61 18 523 0 462 -1 497 -18 523 -40 59 -12 56 -569 57
l-513 0 -32 -29z m892 -551 l0 -350 -345 0 -345 0 0 350 0 350 345 0 345 0 0
-350z"></path>
<path d="M3100 3837 c-13 -7 -35 -28 -47 -46 -22 -33 -23 -40 -23 -291 0 -251
1 -258 23 -291 12 -18 34 -39 47 -46 20 -10 319 -13 1393 -13 1503 0 1409 -4
1442 60 22 43 22 537 0 580 -33 64 61 60 -1442 60 -1074 0 -1373 -3 -1393 -13z
m2605 -337 l0 -115 -1215 0 -1215 0 -3 104 c-1 58 0 111 2 118 5 11 220 13
1218 11 l1213 -3 0 -115z"></path>
<path d="M1108 2084 c-58 -31 -58 -27 -58 -574 l0 -500 34 -38 34 -37 501 -3
c554 -3 542 -4 581 61 19 31 20 54 20 523 l0 491 -23 34 c-12 18 -34 39 -47
46 -19 10 -143 13 -520 12 -419 0 -499 -2 -522 -15z m870 -566 l2 -348 -345 0
-345 0 0 343 c0 189 3 347 7 350 4 4 158 6 342 5 l336 -3 3 -347z"></path>
<path d="M3093 1850 c-60 -36 -63 -51 -63 -337 0 -233 2 -261 18 -286 41 -61
-70 -56 1444 -57 l1388 0 32 29 33 29 3 281 3 280 -35 38 -34 38 -1379 3
c-1353 2 -1379 2 -1410 -18z m2617 -335 l0 -115 -1220 0 -1220 0 0 115 0 115
1220 0 1220 0 0 -115z"></path>
</g>
</svg>